<svg width="14" height="15" viewBox="0 0 14 15" fill="none" xmlns="http://www.w3.org/2000/svg">
<path d="M12.2128 6.58817L12.994 7.05692C13.1479 7.14927 13.1977 7.34884 13.1055 7.50273C13.078 7.54848 13.0398 7.58676 12.994 7.61419L6.95971 11.2347L0.925384 7.61419C0.771501 7.52184 0.721604 7.32227 0.813931 7.16838C0.841375 7.12263 0.879646 7.08435 0.925384 7.05692L1.70658 6.58817L6.95971 9.74003L12.2128 6.58817ZM12.2128 9.64255L12.994 10.1113C13.1479 10.2037 13.1977 10.4032 13.1055 10.5571C13.078 10.6029 13.0398 10.6411 12.994 10.6686L7.29401 14.0885C7.08826 14.212 6.83111 14.212 6.62536 14.0885L0.925384 10.6686C0.771501 10.5762 0.721604 10.3766 0.813931 10.2228C0.841375 10.177 0.879646 10.1387 0.925384 10.1113L1.70658 9.64255L6.95971 12.7944L12.2128 9.64255ZM7.29401 0.615067L12.994 4.03504C13.1479 4.12736 13.1977 4.32696 13.1055 4.48084C13.078 4.52658 13.0398 4.56486 12.994 4.59229L6.95971 8.21284L0.925384 4.59229C0.771501 4.49997 0.721604 4.30037 0.813931 4.14649C0.841375 4.10075 0.879646 4.06248 0.925384 4.03504L6.62536 0.615067C6.83111 0.491592 7.08826 0.491592 7.29401 0.615067Z" fill="url(#paint0_linear_644_4343)"/>
<defs>
<linearGradient id="paint0_linear_644_4343" x1="14.8617" y1="0.522461" x2="-3.06095" y2="16.5226" gradientUnits="userSpaceOnUse">
<stop stop-color="#F1C08F"/>
<stop offset="1" stop-color="#7A4F23"/>
</linearGradient>
</defs>
</svg>
