<svg xmlns="http://www.w3.org/2000/svg" width="13" height="16" fill="none" viewBox="0 0 13 16"><path fill="url(#paint0_linear_644_4346)" d="M0.666053 1.44687L6.24097 0.208008L11.8159 1.44687C12.1263 1.51586 12.3472 1.79119 12.3472 2.10919V8.88485C12.3472 10.2459 11.6669 11.517 10.5344 12.272L6.24097 15.1343L1.94749 12.272C0.815003 11.517 0.134766 10.2459 0.134766 8.88485V2.10919C0.134766 1.79119 0.355627 1.51586 0.666053 1.44687ZM6.24097 6.99268C7.17773 6.99268 7.93713 6.23327 7.93713 5.29651C7.93713 4.35974 7.17773 3.60034 6.24097 3.60034C5.30421 3.60034 4.5448 4.35974 4.5448 5.29651C4.5448 6.23327 5.30421 6.99268 6.24097 6.99268ZM3.2065 10.385H9.27541C9.10667 8.85846 7.8125 7.67114 6.24097 7.67114C4.66945 7.67114 3.37525 8.85846 3.2065 10.385Z"/><defs><linearGradient id="paint0_linear_644_4346" x1=".135" x2="14.48" y1="11.479" y2="2.937" gradientUnits="userSpaceOnUse"><stop stop-color="#965DB0"/><stop offset="1" stop-color="#CBABDA"/></linearGradient></defs></svg>